<svg width="10" height="10" viewBox="0 0 10 10" fill="none" xmlns="http://www.w3.org/2000/svg">
<path d="M6.41331 4.99998L9.47998 1.93331C9.86665 1.54665 9.86665 0.906647 9.47998 0.519981C9.09331 0.133314 8.45331 0.133314 8.06665 0.519981L4.99998 3.58665L1.93331 0.519981C1.54665 0.133314 0.906647 0.133314 0.519981 0.519981C0.133314 0.906647 0.133314 1.54665 0.519981 1.93331L3.58665 4.99998L0.519981 8.06665C0.133314 8.45331 0.133314 9.09331 0.519981 9.47998C0.719981 9.67998 0.973313 9.77331 1.22665 9.77331C1.47998 9.77331 1.73331 9.67998 1.93331 9.47998L4.99998 6.41331L8.06665 9.47998C8.26665 9.67998 8.51998 9.77331 8.77331 9.77331C9.02665 9.77331 9.27998 9.67998 9.47998 9.47998C9.86665 9.09331 9.86665 8.45331 9.47998 8.06665L6.41331 4.99998Z"/>
</svg>
